<?xml version="1.0" standalone="no"?>
<!DOCTYPE svg PUBLIC "-//W3C//DTD SVG 1.1//EN" "http://www.w3.org/Graphics/SVG/1.1/DTD/svg11.dtd" >
<!--
2013-9-30: Created.
-->
<svg>
<metadata>
Created by iconfont
</metadata>
<defs>

<font id="iconfont" horiz-adv-x="1024" >
  <font-face
    font-family="iconfont"
    font-weight="500"
    font-stretch="normal"
    units-per-em="1024"
    ascent="896"
    descent="-128"
  />
    <missing-glyph />
    
    <glyph glyph-name="home" unicode="&#59064;" d="M96 416c-9.6 0-19.2 3.2-25.6 12.8-12.8 12.8-9.6 35.2 3.2 44.8l377.6 310.4c35.2 25.6 86.4 25.6 118.4 0l377.6-307.2c12.8-9.6 16-32 3.2-44.8s-32-16-44.8-3.2l-374.4 300.8c-9.6 6.4-28.8 6.4-38.4 0l-377.6-307.2c-6.4-6.4-12.8-6.4-19.2-6.4zM816-32h-208c-19.2 0-32 12.8-32 32v150.4c0 22.4-38.4 44.8-67.2 44.8s-64-19.2-64-44.8v-150.4c0-19.2-12.8-32-32-32h-201.6c-48 0-83.2 35.2-83.2 80v304c0 19.2 12.8 32 32 32s32-12.8 32-32v-304c0-9.6 6.4-16 19.2-16h172.8v118.4c0 64 67.2 108.8 128 108.8s131.2-44.8 131.2-108.8v-118.4h176c9.6 0 16 0 16 19.2v300.8c0 19.2 12.8 32 32 32s32-12.8 32-32v-304c-3.2-48-35.2-80-83.2-80z"  horiz-adv-x="1024" />

    
    <glyph glyph-name="homefill" unicode="&#59067;" d="M947.2 473.6l-374.4 307.2c-32 25.6-86.4 25.6-118.4 0l-377.6-310.4c-12.8-6.4-16-22.4-9.6-35.2 3.2-12.8 16-19.2 28.8-19.2h32v-364.8c0-48 35.2-83.2 83.2-83.2h204.8c19.2 0 32 12.8 32 32v147.2c0 22.4 35.2 44.8 64 44.8s67.2-22.4 67.2-44.8v-147.2c0-19.2 12.8-32 32-32h208c48 0 80 32 80 83.2v364.8h32c12.8 0 25.6 9.6 28.8 22.4 3.2 12.8 0 25.6-12.8 35.2z"  horiz-adv-x="1024" />

    
    <glyph glyph-name="xuexi" unicode="&#58883;" d="M1277.088512 469.365828l0-213.00761 51.350798-58.778878-98.582587-85.454538-90.091616 85.454538 54.188013 60.327003L1193.95312 434.12258C902.672178 315.301272 823.810243 278.378559 759.223161 249.543064c-64.599243-28.833063-111.125681-28.687128-175.199559-4.800038-64.065365 23.879793-354.550962 134.007037-505.99234 205.719384-101.065911 47.854444-107.568521 78.182122 1.734192 118.789689C222.405749 622.867319 443.66597 708.72561 568.638429 755.581617c73.984065 29.619894 113.093368 45.78217 180.99925 12.010432 121.249906-49.537559 383.795075-152.39117 521.552635-208.658754C1391.123159 507.145908 1310.495413 490.116537 1277.088512 469.365828L1277.088512 469.365828 1277.088512 469.365828zM773.269383 161.181991c70.439066 28.762528 165.414632 76.309293 268.972379 120.201608l0-352.419098c0 0-133.938934-140.964477-369.387664-140.964477C419.293647-211.999977 282.327783-71.035499 282.327783-71.035499L282.327783 257.906343c79.930907-32.212669 169.683225-59.930547 278.308556-96.724351C627.5827 137.625687 712.534979 129.482527 773.269383 161.181991L773.269383 161.181991 773.269383 161.181991zM773.269383 161.181991"  horiz-adv-x="1335" />

    
    <glyph glyph-name="fenxiang1" unicode="&#58946;" d="M748.891292 316.316481c-44.417629 0-85.133959-17.450441-115.273397-45.473681L443.259406 366.022557c0.528026 5.815449 1.058099 12.161994 1.058099 17.977443 0 5.815449-0.531096 12.161994-1.058099 17.977443l190.358489 95.179756c30.139437-28.02324 70.855768-45.473681 115.273397-45.473681 93.590562 0 169.20675 75.613118 169.20675 169.20675S842.481853 790.100088 748.891292 790.100088c-93.593632 0-169.20982-75.616188-169.20982-169.20982 0-5.815449 0.531096-12.161994 1.058099-17.977443l-190.358489-95.179756c-30.139437 28.02631-70.855768 45.472658-115.273397 45.472658-93.593632 0-169.20675-75.613118-169.20675-169.20675s75.613118-169.20982 169.20675-169.20982c44.417629 0 85.133959 17.450441 115.273397 45.476751l190.358489-95.179756c-0.528026-5.815449-1.058099-12.161994-1.058099-17.977443 0-93.593632 75.616188-169.20982 169.20982-169.20982 93.590562 0 169.20675 75.616188 169.20675 169.20982S842.481853 316.316481 748.891292 316.316481z"  horiz-adv-x="1024" />

    
    <glyph glyph-name="qiandao" unicode="&#58895;" d="M105.166201 169.7995C36.075637 286.515758 64.291259 460.596516 137.26527 568.814216c10.213619 15.549138 31.627325 19.902282 47.183626 9.444093 7.272637-5.094018 12.167111-12.388145 14.097066-20.152992l0.471744 0c1.481747-6.822382 2.940982-12.141528 4.130064-17.504676 7.564279 24.551162 17.755386 48.634674 30.41573 71.476915 39.394219 68.581981 102.626355 125.471666 170.237219 151.72868 18.002003 6.79987 37.46324-1.974981 44.040029-19.457144 3.63683-8.998955 2.670829-18.492166-0.493234-26.257014-6.577812-15.552208-12.413727-30.655184-17.508769-45.714158 50.347688 45.714158 114.051569 85.570911 179.214684 110.122073 135.242194 50.853202 288.935622 35.772738 347.072717-117.909433 6.800893-17.751293-2.200108-37.455053-19.707854-44.254923l-3.659343-0.964978c-114.523313-30.136368-157.576875-105.028055-197.958584-175.809121-56.184627-98.718349-108.709911-190.867072-296.454876-187.949626 12.660344-5.588275 29.1806-11.893888 50.101071-18.469654 18.22713-5.588275 28.193109-24.797779 22.873963-42.796712-2.940982-8.998955-9.496282-16.045441-17.283642-20.422122-86.35374-48.631604-237.600443-83.169211-334.88514-44.995797-13.871939-19.434631-34.545794-61.984726-20.202111-128.366599l0 0 94.612844 0c11.425214 0 20.426215-8.998955 20.426215-20.668739 0-11.172457-9.001001-20.422122-20.426215-20.422122l-101.661378 0-19.932981 0-2.918469 0c-17.014512-1.705851-33.333176 9.717316-36.970006 26.997887C53.112662 75.697285 82.765005 138.197758 105.166201 169.7995L105.166201 169.7995zM355.897709-40.528809 355.897709-40.528809l581.581752 0c11.425214 0 20.920472 9.249665 20.920472 20.422122 0 11.669784-9.495258 20.668739-20.920472 20.668739L355.897709 0.562051c-11.447726 0-20.673855-8.998955-20.673855-20.668739C335.223854-31.279145 344.449983-40.528809 355.897709-40.528809L355.897709-40.528809z"  horiz-adv-x="1024" />

    
    <glyph glyph-name="guanbi1" unicode="&#58896;" d="M512 800C281.118 800 96 614.882 96 384c0-230.872 185.118-416 416-416 230.87 0 416 185.128 416 416C928 614.882 742.872 800 512 800zM720.004 234.238l-58.24-58.234L512 325.766l-149.762-149.762-58.242 58.234L453.762 384l-149.766 149.762 58.242 58.232L512 442.238l149.762 149.756 58.24-58.232L570.238 384 720.004 234.238z"  horiz-adv-x="1024" />

    
    <glyph glyph-name="1111130" unicode="&#58910;" d="M506.88 752.64c81.92-64 171.52-107.52 325.12-107.52l0-281.6c0-133.12-171.52-371.2-325.12-371.2-153.6 0-325.12 238.08-325.12 371.2l0 281.6C332.8 645.12 422.4 688.64 506.88 752.64L506.88 752.64 506.88 752.64zM506.88 688.64c-69.12-53.76-143.36-89.6-271.36-89.6l0-235.52c0-112.64 143.36-309.76 271.36-309.76 128 0 271.36 197.12 271.36 309.76l0 235.52C650.24 599.04 576 634.88 506.88 688.64L506.88 688.64 506.88 688.64zM698.88 483.84l-20.48 20.48c-5.12 5.12-15.36 5.12-23.04-2.56L460.8 307.2l-102.4 97.28c-7.68 7.68-17.92 7.68-23.04 2.56l-20.48-20.48c-5.12-5.12-2.56-15.36 2.56-23.04l130.56-122.88c2.56-2.56 5.12-5.12 7.68-5.12 5.12-2.56 12.8 0 17.92 5.12l220.16 220.16C701.44 468.48 704 478.72 698.88 483.84L698.88 483.84z"  horiz-adv-x="1024" />

    
    <glyph glyph-name="shijian" unicode="&#58898;" d="M876.7232 844.951771c-255.041829 0-461.791086-206.747429-461.791086-461.791085s206.747429-461.791086 461.791086-461.791086C1131.761371-78.6304 1338.514286 128.118857 1338.514286 383.160686S1131.761371 844.951771 876.7232 844.951771z m157.083429-637.184l-16.325486-16.329142c-9.018514-9.014857-23.637943-9.014857-32.6528 0l-149.743543 149.745371c-5.174857 5.174857-4.538514 15.5776-4.538514 25.813943V660.234971c0 12.756114 10.340571 23.089371 23.087543 23.089372h23.089371c12.750629 0 23.089371-10.335086 23.089371-23.089372V374.418286l133.992229-133.997715c9.020343-9.018514 9.020343-23.632457 0.001829-32.6528z"  horiz-adv-x="1755" />

    
    <glyph glyph-name="xiaoxi1" unicode="&#59052;" d="M514.048 700.416C337.92 700.416 191.488 576.512 191.488 424.96c0-183.296 163.84-307.2 233.472-351.232 15.36-10.24 36.864-4.096 44.032 13.312l28.672 63.488h15.36c176.128 0 318.464 123.904 318.464 275.456s-141.312 274.432-317.44 274.432zM369.664 367.616c-22.528 0-40.96 18.432-40.96 40.96s18.432 40.96 40.96 40.96 40.96-18.432 40.96-40.96-18.432-40.96-40.96-40.96z m142.336 0c-22.528 0-40.96 18.432-40.96 40.96s18.432 40.96 40.96 40.96 40.96-18.432 40.96-40.96-18.432-40.96-40.96-40.96z m142.336 0c-22.528 0-40.96 18.432-40.96 40.96s18.432 40.96 40.96 40.96 40.96-18.432 40.96-40.96-18.432-40.96-40.96-40.96z"  horiz-adv-x="1024" />

    
    <glyph glyph-name="fenggepitchon" unicode="&#58915;" d="M783.36 844.8c104.448 0 189.44-84.992 189.44-189.44s-84.992-189.44-189.44-189.44h-184.32c-3.072 0-5.632 2.56-5.632 5.632V655.36c0 104.448 85.504 189.44 189.952 189.44m0 51.2c-133.12 0-240.64-108.032-240.64-240.64v-184.32c0-31.232 25.6-56.832 56.832-56.832h184.32c133.12 0 240.64 108.032 240.64 240.64S915.968 896 783.36 896zM240.64 896C108.032 896 0 787.968 0 655.36s108.032-240.64 240.64-240.64h184.32c31.232 0 56.832 25.6 56.832 56.832V655.36C481.792 787.968 373.76 896 240.64 896zM783.36 353.792h-184.32c-31.232 0-56.832-25.6-56.832-56.832v-184.32c0-133.12 108.032-240.64 240.64-240.64s240.64 108.032 240.64 240.64-107.52 241.152-240.128 241.152zM424.96 353.792H240.64c-133.12 0-240.64-108.032-240.64-240.64s108.032-240.64 240.64-240.64 240.64 108.032 240.64 240.64v184.32c0.512 30.72-25.088 56.32-56.32 56.32z"  horiz-adv-x="1024" />

    
    <glyph glyph-name="fengge" unicode="&#58916;" d="M783.36 844.8c104.448 0 189.44-84.992 189.44-189.44s-84.992-189.44-189.44-189.44h-184.32c-3.072 0-5.632 2.56-5.632 5.632V655.36c0 104.448 85.504 189.44 189.952 189.44m0 51.2c-133.12 0-240.64-107.52-240.64-240.64v-184.32c0-31.232 25.6-56.832 56.832-56.832h184.32c133.12 0 240.64 107.52 240.64 240.64S915.968 896 783.36 896zM240.64 844.8c104.448 0 189.44-84.992 189.44-189.44v-184.32c0-3.072-2.56-5.632-5.632-5.632H240.64c-104.448 0-189.44 84.992-189.44 189.44S136.192 844.8 240.64 844.8m0 51.2C108.032 896 0 788.48 0 655.36s108.032-240.64 240.64-240.64h184.32c31.232 0 56.832 25.6 56.832 56.832V655.36C481.792 788.48 373.76 896 240.64 896zM783.36 302.592c104.448 0 189.44-84.992 189.44-189.44s-84.992-189.44-189.44-189.44-189.44 84.992-189.44 189.44v184.32c0 3.072 2.56 5.632 5.632 5.632H783.36m0 50.688h-184.32c-31.232 0-56.832-25.6-56.832-56.832v-184.32c0-133.12 108.032-240.64 240.64-240.64s240.64 107.52 240.64 240.64-107.52 241.152-240.128 241.152zM424.96 302.592c3.072 0 5.632-2.56 5.632-5.632v-184.32c0-104.448-84.992-189.44-189.44-189.44s-189.44 84.992-189.44 189.44 84.992 189.44 189.44 189.44l183.808 0.512m0 51.2H240.64c-133.12 0-240.64-107.52-240.64-240.64s108.032-240.64 240.64-240.64 240.64 107.52 240.64 240.64v184.32c0.512 30.72-25.088 56.32-56.32 56.32z"  horiz-adv-x="1024" />

    
    <glyph glyph-name="shezhi" unicode="&#58943;" d="M1016.832 289.792q2.048-12.288-1.024-29.696t-10.24-35.328-17.408-32.256-22.528-20.48-21.504-6.144-20.48 4.096q-10.24 3.072-25.6 5.632t-31.232 1.024-31.744-6.656-27.136-17.408q-24.576-25.6-28.672-58.368t9.216-62.464q10.24-20.48-3.072-40.96-6.144-8.192-19.456-16.896t-29.184-15.872-33.28-11.264-30.72-4.096q-9.216 0-17.408 7.168t-11.264 15.36h-1.024q-11.264 31.744-38.4 54.784t-62.976 23.04q-34.816 0-62.976-23.04t-39.424-53.76q-5.12-12.288-15.36-17.92t-22.528-5.632q-14.336 0-32.256 5.12t-35.84 12.8-32.256 17.92-21.504 20.48q-5.12 7.168-5.632 16.896t7.68 27.136q11.264 23.552 8.704 53.76t-26.112 55.808q-14.336 15.36-34.816 19.968t-38.912 3.584q-21.504-1.024-44.032-8.192-14.336-4.096-28.672 2.048-11.264 4.096-20.992 18.944T79.36 221.696 67.584 258.56t-2.048 31.232q3.072 22.528 20.48 28.672 30.72 12.288 55.296 40.448t24.576 62.976q0 35.84-24.576 62.464t-55.296 38.912q-9.216 3.072-15.36 14.848t-6.144 24.064q0 13.312 4.096 29.696t10.752 31.744 15.36 28.16 18.944 18.944q8.192 5.12 15.872 4.096t16.896-4.096q30.72-12.288 64-7.68t58.88 29.184q12.288 12.288 17.92 30.208t7.168 35.328 0 31.744-2.56 20.48q-2.048 6.144-3.584 14.336t1.536 14.336q6.144 14.336 22.016 25.088t34.304 17.92 35.84 10.752T409.6 896q13.312 0 20.992-8.704t10.752-17.92q11.264-27.648 36.864-48.64t60.416-20.992q35.84 0 63.488 19.968T641.024 870.4q4.096 8.192 12.8 16.896T671.744 896q14.336 0 31.232-4.096t33.28-11.264 30.208-18.432 22.016-24.576q5.12-8.192 3.072-17.92t-4.096-13.824q-13.312-29.696-8.192-62.464t29.696-57.344 60.416-27.136 66.56 11.776q8.192 5.12 19.968 4.096t19.968-9.216q15.36-14.336 27.136-43.52t15.872-58.88q2.048-17.408-5.632-27.136t-15.872-12.8Q965.632 512 943.104 483.84t-22.528-64q0-34.816 18.944-60.928t49.664-37.376q7.168-4.096 12.288-8.192 11.264-9.216 15.36-23.552z m-476.16-92.16q46.08 0 87.04 17.408t71.168 48.128 47.616 71.168 17.408 86.528-17.408 86.528-47.616 70.656-71.168 47.616-87.04 17.408-86.528-17.408-70.656-47.616-47.616-70.656-17.408-86.528 17.408-86.528 47.616-71.168 70.656-48.128 86.528-17.408z"  horiz-adv-x="1024" />

    
    <glyph glyph-name="yanzhengma-copy" unicode="&#58882;" d="M851.785 745.294c-8.516-0.305-16.837-0.413-25.027-0.413-215.239 0-310.075 95.488-310.881 96.382l-21.455 22.739-21.628-22.762c-0.849-1.002-93.811-96.382-310.837-96.382-8.19 0-16.51 0.109-25.111 0.413l-30.211 1.002v-433.029c0-113.392 39.097-278.774 377.117-405.302l10.564-3.942 10.564 3.942c338.020 126.547 377.117 291.909 377.117 405.302v433.029l-30.211-0.98zM461.098 201.223l-194.767 177.756 51.73 43.127 103.568-78.673c0 0 142.949 152.359 281.019 223.495l19.756-22.849c0 0-172.593-147.306-261.308-342.857v0zM461.098 201.223z"  horiz-adv-x="1024" />

    
    <glyph glyph-name="nextstep" unicode="&#58911;" d="M66.3 385.5a445.3 445.3 0 1 1 890.6 0 445.3 445.3 0 1 1-890.6 0ZM429 159.9c-8.1 0-16.1 3.3-22 9.7-11 12.1-10.1 30.9 2 41.9l185.4 168.3L409 548.2c-12.1 11-13.1 29.8-2 41.9 11 12.1 29.8 13.1 41.9 2l209.7-190.3c6.2-5.6 9.7-13.6 9.7-22s-3.5-16.4-9.7-22L448.9 167.7c-5.7-5.2-12.8-7.8-19.9-7.8z"  horiz-adv-x="1024" />

    
    <glyph glyph-name="nextstep1" unicode="&#58917;" d="M957.7 382.5c0 245.932-199.368 445.3-445.3 445.3s-445.3-199.368-445.3-445.3c0-245.932 199.368-445.3 445.3-445.3 245.932 0 445.3 199.368 445.3 445.3zM594.999 608.1c8.101 0 16.1-3.3 22-9.7 11-12.1 10.1-30.9-2-41.9l-185.401-168.3 185.4-168.4c12.1-11 13.1-29.8 2-41.9-11-12.1-29.8-13.1-41.9-2l-209.7 190.3c-6.2 5.6-9.7 13.6-9.7 22s3.499 16.4 9.7 22l209.7 190.1c5.7 5.199 12.8 7.799 19.9 7.8z"  horiz-adv-x="1024" />

    
    <glyph glyph-name="suo" unicode="&#58958;" d="M791.381012 497.071242c-17.539468 0.168846-16.22452-2.326998-16.267499 16.83134-0.077771 35.163871 0.680499 31.237445-0.172939 66.379827-1.721201 70.885444-28.149107 131.658575-78.003561 180.528609-82.870406 81.225953-203.588815 98.795097-304.641325 42.663682-86.923722-48.282656-132.756583-124.820843-136.316666-226.155786-1.158383-32.921807-0.033769-26.817786-0.199544-59.782572-0.119727-23.697725 2.90312-20.213367-20.156063-20.432355-36.031635-0.342808-61.171198-25.640983-61.189617-62.246692-0.082888-144.42432 0.470721-288.855804-0.448208-433.276031-0.23843-37.462217 31.198559-64.241117 63.130829-63.818491 91.562369 1.210571 183.15339 0.424672 274.728038 0.426719 92.195795 0 184.391591-0.035816 276.586363 0.017396 37.959543 0.021489 62.501496 24.994254 62.513776 63.568804 0.049119 142.854569 0.060375 285.711184 0.029675 428.565753-0.001023 5.946432 0.096191 12.026918-1.014096 17.810644-5.542226 28.885887-29.458939 48.640814-58.579163 48.919153z m-484.417805 73.827449c0.677429 89.316212 53.086056 167.526481 133.249817 199.21418 126.241192 49.900503 267.385816-35.473933 283.396465-172.07917 5.198395-44.333718 1.449002-49.943482 2.196015-94.480838 0.12689-7.469112-5.175883-6.455015-9.70299-6.457062-41.921785-0.028653-83.844593-0.00614-125.767401-0.005116-24.659633 0.00307-49.321312 0.00307-73.979922 0.003069-65.351404-0.00307-130.699738 0.00921-196.051141-0.011256-13.427824-0.005117-13.390985-0.059352-13.381775 13.114692 0.021489 33.268708-0.208754 27.432793 0.040932 60.701501z m489.586524-557.12985c0-10.800997-8.595772-19.555381-19.204387-19.555382h-529.714454c-10.607592 0-19.205411 8.754385-19.20541 19.555382V417.895995c0 10.797927 8.596795 19.555381 19.20541 19.555381h529.714454c10.607592 0 19.204387-8.755408 19.204387-19.555381v-404.127154zM524.438287 373.447666c-34.725896 3.288906-67.146283-16.411785-79.130222-48.085158-12.446473-32.898271-2.87856-70.774927 24.227798-90.298585 9.610892-6.924713 12.990872-15.298428 13.075806-26.123984 0.145309-18.195408 0.039909-36.387745 0.039909-57.580417 1.116427-18.602683-1.937119-40.337707 1.464351-61.813834 2.379187-15.023158 15.561417-25.442462 30.92022-25.768897 14.557554-0.312108 26.205848 9.208732 29.993105 24.302499 1.163499 4.628414 1.323135 9.283434 1.323135 13.995759 0.00307 33.881668-0.039909 67.763336 0.068562 101.641935 0.039909 12.698207 3.499707 22.49841 14.975063 30.909987 25.486464 18.681478 34.760688 45.414329 29.15297 76.963882-5.805216 32.655747-34.038234 58.81964-66.110697 61.856813z"  horiz-adv-x="1024" />

    
    <glyph glyph-name="icon-top-copy" unicode="&#58894;" d="M645.667 727.998l-427.001-355 427.001-356v711z"  horiz-adv-x="1024" />

    
    <glyph glyph-name="morenbiaoqing" unicode="&#58968;" d="M512 384m-512 0a512 512 0 1 1 1024 0 512 512 0 1 1-1024 0ZM209.92 281.6c25.6-143.36 148.48-256 302.08-256s276.48 112.64 302.08 256h-604.16zM204.8 512a76.8 76.8 0 1 1 153.6 0 76.8 76.8 0 1 1-153.6 0ZM665.6 512a76.8 76.8 0 1 1 153.6 0 76.8 76.8 0 1 1-153.6 0Z"  horiz-adv-x="1024" />

    
    <glyph glyph-name="remen" unicode="&#58880;" d="M317.391-127.92c-68.232 141.912-31.843 223.202 20.549 299.787 57.387 83.909 72.203 166.921 72.203 166.921s45.148-58.656 27.058-150.383c79.738 88.74 94.797 230.121 82.724 284.229 180.14-125.945 257.136-398.556 153.414-600.636 551.969 312.313 137.285 779.636 65.161 832.275 24.072-52.6 28.616-141.751-19.929-185.016-82.319 312.154-285.829 376.129-285.829 376.129 24.105-160.944-87.229-336.873-194.552-468.387-3.807 64.141-7.778 108.427-41.548 169.87-7.612-116.615-96.641-211.62-120.747-328.402-32.666-158.24 24.477-273.995 241.578-396.383l-0.081-0.004zM317.391-127.92z"  horiz-adv-x="1024" />

    
    <glyph glyph-name="me_line" unicode="&#59119;" d="M904.746667 67.626667a21.333333 21.333333 0 0 1 0 9.173333 405.333333 405.333333 0 0 1-65.706667 154.666667 21.333333 21.333333 0 1 1-34.986667-24.32 362.666667 362.666667 0 0 0 57.6-133.546667 21.333333 21.333333 0 0 1 0-4.906667 44.16 44.16 0 0 0 0-8.746666 42.666667 42.666667 0 0 0-42.666666-42.666667h-6.186667a37.76 37.76 0 0 1-8.32 0H210.986667a21.333333 21.333333 0 0 1-2.986667 0 42.666667 42.666667 0 0 0-46.72 42.666667 43.946667 43.946667 0 0 0 0 7.466666A359.253333 359.253333 0 0 0 512 360.746667a350.293333 350.293333 0 0 0 132.693333-25.813334 21.333333 21.333333 0 1 1 16.64 39.466667 392.746667 392.746667 0 0 1-46.72 15.36A215.893333 215.893333 0 0 1 512 793.813333a215.893333 215.893333 0 0 1-101.973333-403.84A403.626667 403.626667 0 0 1 120.533333 79.36V76.8c0-1.493333 0-3.413333-1.28-5.12a21.333333 21.333333 0 0 1 0-5.76v-4.693333a85.333333 85.333333 0 0 1 85.333334-85.333334H821.973333a85.333333 85.333333 0 0 1 85.333334 85.333334c-1.706667 1.493333-2.346667 3.84-2.56 6.4zM343.466667 578.56A169.386667 169.386667 0 1 0 512 405.333333a170.666667 170.666667 0 0 0-168.533333 173.226667zM724.053333 291.413333a32.64 32 90 1 1 64 0 32.64 32 90 1 1-64 0Z"  horiz-adv-x="1024" />

    
    <glyph glyph-name="me_surface" unicode="&#59120;" d="M904.704 71.68c-1.024 1.536-1.024 3.584-1.024 5.12v2.56c-29.696 150.016-141.824 270.336-289.28 310.784 66.56 37.376 108.032 107.52 109.568 183.808 2.56 119.296-92.672 217.6-211.456 220.16-119.296-2.56-214.016-100.864-211.456-220.16 1.536-76.288 43.008-146.432 109.568-183.808-147.456-40.448-259.584-160.768-289.28-310.784v-2.56c0-1.536 0-3.584-1.024-5.12-0.512-2.048-0.512-4.096 0-5.632v-4.608c0-47.104 38.4-85.504 85.504-85.504h614.4c47.104 0 85.504 38.4 85.504 85.504v4.608c-0.512 1.536-0.512 3.584-1.024 5.632zM161.28 59.904v0zM862.72 59.904v0z"  horiz-adv-x="1024" />

    
    <glyph glyph-name="myunpan" unicode="&#59392;" d="M854.56 403.68l-0.096 0.672c-4.544 0.32-9.024 0.768-13.6 0.768-92.512 0-169.088-68.352-180.256-156.384-1.6-12.8-12.928-22.176-26.048-22.176h-12.096a26.528 26.528 0 0 0-26.496 29.632c14.912 119.84 119.072 212.928 244.896 212.928l0.864-0.032C800.544 604.896 672.864 704 521.344 704c-145.6 0-269.088-91.52-315.2-219.104C90.432 473.504 0 377.44 0 260.608c0-123.904 101.664-224.352 227.424-225.376v-0.128h606.048v0.864c0.992-0.032 1.984-0.16 2.976-0.16 103.584 0 187.552 82.56 187.552 184.384 0 95.84-74.368 174.528-169.44 183.488"  horiz-adv-x="1024" />

    
    <glyph glyph-name="fabiaowenzhang" unicode="&#59058;" d="M630.916129-22.296774c-13.212903-13.212903-23.122581-23.122581-33.032258-29.729032l-13.212903-13.212904c-3.303226-3.303226-9.909677-6.606452-13.212903-9.909677-6.606452-3.303226-9.909677-6.606452-16.51613-9.909678-6.606452-3.303226-13.212903-6.606452-26.425806-9.909677-9.909677-3.303226-23.122581-6.606452-33.032258-9.909677-13.212903-3.303226-23.122581-6.606452-33.032258-9.909678-9.909677-3.303226-19.819355-3.303226-23.122581-6.606451-9.909677-3.303226-16.516129 0-23.12258 3.303225-3.303226 3.303226-3.303226 13.212903-3.303226 23.122581 0 6.606452 3.303226 13.212903 6.606451 23.122581 3.303226 9.909677 6.606452 19.819355 9.909678 33.032258l9.909677 29.729032c3.303226 9.909677 6.606452 16.516129 6.606452 19.819355 6.606452 9.909677 13.212903 19.819355 23.122581 29.729032l16.516129 16.516129 33.032258 33.032258c13.212903 13.212903 29.729032 26.425806 42.941935 42.941936 16.516129 16.516129 33.032258 33.032258 49.548387 46.245161 39.63871 36.335484 82.580645 79.277419 128.825807 125.522581l112.309677-109.006452-221.316129-218.012903z m297.290323 287.380645l-13.212904-13.212903-9.909677-9.909678c-3.303226-3.303226-6.606452-6.606452-9.909677-6.606451l-115.612904 109.006451c6.606452 3.303226 9.909677 9.909677 16.516129 16.516129s13.212903 9.909677 16.516129 13.212904c9.909677 9.909677 23.122581 13.212903 36.335484 13.212903 13.212903 0 23.122581-3.303226 29.729033-9.909678 9.909677-3.303226 19.819355-13.212903 29.729032-23.12258 9.909677-9.909677 19.819355-23.122581 23.12258-33.032258 3.303226-6.606452 3.303226-16.516129 6.606452-26.425807 6.606452-9.909677 0-19.819355-9.909677-29.729032z m-171.767742 630.916129h-597.883871c-46.245161 0-92.490323-36.335484-92.490323-82.580645v-782.864516c0-46.245161 46.245161-89.187097 92.490323-89.187097h122.219355l568.154838 548.335484V813.419355c0 46.245161-46.245161 82.580645-92.490322 82.580645z m-317.109678-644.129032h-218.012903v52.851613h218.012903v-52.851613z m0 122.219355h-218.012903v52.851612h218.012903v-52.851612z m254.348387 125.52258h-472.36129v52.851613h472.36129v-52.851613z m0 122.219355h-472.36129v52.851613h472.36129v-52.851613z"  horiz-adv-x="1024" />

    
    <glyph glyph-name="wenzhang" unicode="&#58890;" d="M677.418 592.251h-330.837c-6.13 0-10.995-4.963-10.995-10.995v-396.712c0-6.13 4.963-10.995 10.995-10.995h231.586v72.298c0 18.293 14.789 33.084 33.082 33.084h77.163v302.326c0.001 6.033-4.961 10.995-10.994 10.995zM550.825 384.505h-176.414c-9.147 0-16.542 7.395-16.542 16.542s7.395 16.542 16.542 16.542h176.414c9.147 0 16.542-7.395 16.542-16.542s-7.396-16.542-16.542-16.542zM639.079 473.344h-264.669c-9.147 0-16.542 7.395-16.542 16.542s7.395 16.542 16.542 16.542h264.669c9.148 0 16.543-7.395 16.543-16.542s-7.395-16.542-16.543-16.542zM512 820.723c-241.803 0-437.872-196.069-437.872-437.872s196.069-437.872 437.872-437.872h437.872v437.872c0 241.803-196.069 437.872-437.872 437.872zM721.497 261.609c0-9.049-3.698-17.711-10.314-24.034l-93.022-88.158c-6.13-5.838-14.305-9.048-22.771-9.048h-248.809c-24.326 0-44.079 19.752-44.079 44.078v396.809c0 24.326 19.753 44.079 44.079 44.079h330.837c24.326 0 44.079-19.753 44.079-44.079v-319.647zM611.251 188.533l60.426 57.215h-60.426v-57.215z"  horiz-adv-x="1024" />

    
    <glyph glyph-name="duihao" unicode="&#58881;" d="M512 896c-282.76 0-512-229.24-512-512s229.24-512 512-512 512 229.24 512 512-229.24 512-512 512zM474.965 110.933c-78.677 99.738-171.247 175.719-236.032 199.476l152.747 94.993 74.035-147.252s120.355 299.213 310.102 398.95c-4.608-71.235-23.143-132.949 9.25-208.963-83.32-19.013-254.567-232.722-310.102-337.204z"  horiz-adv-x="1024" />

    
    <glyph glyph-name="xiaoxi" unicode="&#58884;" d="M938.667 441.899c0-201.621-186.432-364.203-416.939-368.661-9.131-10.347-11.733-13.227-16.213-17.899-1.493-1.579-1.493-1.579-3.029-3.136-7.552-7.68-15.253-14.741-35.456-32.597-54.272-41.323-130.837-62.165-186.603-62.272-0.009-0-0.019-0-0.030-0-5.533 0-10.575 2.107-14.366 5.562-4.6 4.121-7.491 10.1-7.491 16.756 0 2.070 0.28 4.075 0.804 5.979 0.774 3.255 2.16 6.135 4.016 9.122 2.027 3.243 4.629 6.571 8.875 11.605 1.109 1.323 8.683 10.197 11.093 13.077 4.672 5.589 8.64 10.56 12.416 15.595 23.253 31.147 33.216 58.475 26.667 83.52-0.441 1.619-0.694 3.479-0.694 5.397 0 11.782 9.552 21.334 21.334 21.334 9.864 0 18.164-6.694 20.606-15.787 10.637-40.747-3.486-79.509-33.737-120-1.173-1.579-2.368-3.136-3.584-4.693 39.104 7.509 82.027 23.744 113.6 47.723 18.283 16.213 25.472 22.827 32.128 29.611l2.603 2.667c4.757 4.992 7.36 7.893 21.333 23.765 3.926 4.453 9.642 7.249 16.012 7.253 212.724-0 383.988 146.773 383.988 326.080 0 179.328-171.264 326.101-384 326.101s-384-146.773-384-326.101c0-86.933 40.32-168.661 111.275-229.461 4.574-3.937 7.452-9.734 7.452-16.203 0-11.786-9.554-21.34-21.34-21.34-5.317 0-10.18 1.944-13.916 5.161-80.057 68.648-126.137 162.003-126.137 261.843 0 204.459 191.701 368.768 426.667 368.768s426.667-164.309 426.667-368.768zM341.333 512c0 11.776 9.493 21.333 21.333 21.333h298.667c11.776 0 21.333-9.472 21.333-21.333 0-11.776-9.493-21.333-21.333-21.333h-298.667c-11.776 0-21.333 9.472-21.333 21.333zM341.333 384c0 11.776 9.728 21.333 21.376 21.333h213.248c11.782 0 21.333-9.551 21.333-21.333s-9.551-21.333-21.333-21.333h-213.248c-0.019-0-0.042-0-0.064-0-11.77 0-21.312 9.542-21.312 21.312 0 0.008 0 0.015 0 0.023z"  horiz-adv-x="1024" />

    
    <glyph glyph-name="touxiang" unicode="&#58897;" d="M498.176 879.616C224.768 879.616 2.56 657.92 2.56 384c0-159.744 75.776-302.08 194.048-392.704 83.456-64.512 187.904-102.4 301.568-102.4 113.664 0 218.112 38.4 301.568 102.4 117.76 90.624 194.048 232.448 194.048 392.704-0.512 273.92-222.208 495.616-495.616 495.616zM379.392 363.008c-29.696 0-53.76 24.064-53.76 53.76s24.064 53.76 53.76 53.76 53.76-24.064 53.76-53.76-24.576-53.76-53.76-53.76z m118.784-145.92c-35.84 0-64.512 36.352-64.512 80.896h128.512c0-45.056-28.672-80.896-64-80.896z m117.248 145.92c-29.696 0-53.76 24.064-53.76 53.76s24.064 53.76 53.76 53.76 53.76-24.064 53.76-53.76-24.064-53.76-53.76-53.76z m183.808-315.392V392.192c0 160.768-135.168 290.816-301.568 290.816S196.096 552.96 196.096 392.192v-344.576c-92.16 82.944-150.528 202.752-150.528 336.384 0 249.856 202.752 452.096 452.096 452.096s452.096-202.752 452.096-452.096c0.512-133.632-57.856-253.44-150.528-336.384z"  horiz-adv-x="1024" />

    
    <glyph glyph-name="solidArrow-right" unicode="&#58893;" d="M378.3329999999998 40.00199999999995l427.0010000000001 354.9999999999999-427.00099999999986 356.00000000000017-1.7053025658242404e-13-711z"  horiz-adv-x="1024" />

    
    <glyph glyph-name="nicheng" unicode="&#59055;" d="M512 896A512 512 0 1 1 1024 384 512 512 0 0 1 512 896z m0-179.541333a154.282667 154.282667 0 1 0-157.696-154.282667 154.282667 154.282667 0 0 0 154.282667 154.282667z m-273.066667-614.4A292.181333 292.181333 0 0 0 409.6 399.018667l101.034667-165.888L614.4 395.605333a300.373333 300.373333 0 0 0 170.666667-291.498666 729.088 729.088 0 0 0-546.133334 0z"  horiz-adv-x="1024" />

    
    <glyph glyph-name="shenhe" unicode="&#58983;" d="M512 832C264.6 832 64 631.4 64 384s200.6-448 448-448 448 200.6 448 448S759.4 832 512 832z m195.1-720H320v30.9h387.1V112z m35.9 64H281v48c0 35.3 28.7 64 64 64h54.7c27.9 12.3 48.8 37.5 55.2 68.1 0.8 8.2 1.4 16.7 1.9 25.3 0 0.9-0.1 1.7-0.2 2.6h0.3c0.5 10.7 0.8 21.7 0.8 32.9 0 24.6-1.4 48.1-3.8 70-29 19.1-48.1 51.8-48.1 89.1 0 58.9 47.7 106.6 106.6 106.6S619.1 634.9 619.1 576c0-35.5-17.3-66.9-44-86.3-2.7-22.9-4.3-47.8-4.3-73.7 0-25.9 1.5-50.6 4.2-73.5 9.1-24.4 27.7-44.1 51.3-54.5H679c35.3 0 64-28.7 64-64v-48z"  horiz-adv-x="1024" />

    
    <glyph glyph-name="feiji" unicode="&#58941;" d="M972.8 696.32L51.2 481.28l167.936-159.744 648.192 320.512L281.6 259.072V71.68l94.208 93.184 94.208-93.184L972.8 696.32z m0 0"  horiz-adv-x="1024" />

    
    <glyph glyph-name="tianjia" unicode="&#58993;" d="M512 384m-512 0a512 512 0 1 1 1024 0 512 512 0 1 1-1024 0ZM512 131.2c-19.2 0-32 12.8-32 32V352H291.2c-19.2 0-32 12.8-32 32s12.8 32 32 32H480V604.8c0 19.2 12.8 32 32 32s32-12.8 32-32V416h188.8c19.2 0 32-12.8 32-32s-12.8-32-32-32H544v-188.8c0-16-12.8-32-32-32z"  horiz-adv-x="1024" />

    


  </font>
</defs>
</svg>
